<svg class="main-svg" xmlns="http://www.w3.org/2000/svg" xmlns:xlink="http://www.w3.org/1999/xlink" width="325.5" height="325.5" style="" viewBox="0 0 325.5 325.5"><rect x="0" y="0" width="325.5" height="325.5" style="fill: rgb(255, 255, 255); fill-opacity: 1;"/><defs id="defs-da54da"><g class="clips"><clipPath id="clipda54daxyplot" class="plotclip"><rect width="292" height="252"/></clipPath><clipPath class="axesclip" id="clipda54dax"><rect x="24" y="0" width="292" height="325.5"/></clipPath><clipPath class="axesclip" id="clipda54day"><rect x="0" y="29" width="325.5" height="252"/></clipPath><clipPath class="axesclip" id="clipda54daxy"><rect x="24" y="29" width="292" height="252"/></clipPath></g><g class="gradients"/><g class="patterns"/></defs><g class="bglayer"/><g class="layer-below"><g class="imagelayer"/><g class="shapelayer"/></g><g class="cartesianlayer"><g class="subplot xy"><g class="layer-subplot"><g class="shapelayer"/><g class="imagelayer"/></g><g class="minor-gridlayer"><g class="x"/><g class="y"/></g><g class="gridlayer"><g class="x"><path class="xgrid crisp" transform="translate(43.75,0)" d="M0,29v252" style="stroke: rgb(232, 232, 232); stroke-opacity: 1; stroke-width: 1px;"/><path class="xgrid crisp" transform="translate(143.85,0)" d="M0,29v252" style="stroke: rgb(232, 232, 232); stroke-opacity: 1; stroke-width: 1px;"/><path class="xgrid crisp" transform="translate(243.95,0)" d="M0,29v252" style="stroke: rgb(232, 232, 232); stroke-opacity: 1; stroke-width: 1px;"/></g><g class="y"/></g><g class="zerolinelayer"/><path class="xlines-below"/><path class="ylines-below"/><g class="overlines-below"/><g class="xaxislayer-below"/><g class="yaxislayer-below"/><g class="overaxes-below"/><g class="plot" transform="translate(24,29)" clip-path="url(#clipda54daxyplot)"><g class="scatterlayer mlayer"><g class="trace scatter tracec5a3d9" style="stroke-miterlimit: 2; opacity: 1;"><g class="fills"/><g class="errorbars"><g class="errorbar" style="opacity: 1;"><path class="xerror" d="M49.46,144.05v8m0,-4H14.6m0,-4v8" style="vector-effect: none; stroke-width: 2px; stroke: rgb(136, 204, 238); stroke-opacity: 1;"/></g><g class="errorbar" style="opacity: 1;"><path class="xerror" d="M101.6,60.05v8m0,-4H58.03m0,-4v8" style="vector-effect: none; stroke-width: 2px; stroke: rgb(136, 204, 238); stroke-opacity: 1;"/></g></g><g class="lines"/><g class="points"><path class="point" transform="translate(32.03,148.05)" d="M5,0A5,5 0 1,1 0,-5A5,5 0 0,1 5,0Z" style="opacity: 1; stroke-width: 0px; fill: rgb(136, 204, 238); fill-opacity: 1;"/><path class="point" transform="translate(79.81,64.05)" d="M5,0A5,5 0 1,1 0,-5A5,5 0 0,1 5,0Z" style="opacity: 1; stroke-width: 0px; fill: rgb(136, 204, 238); fill-opacity: 1;"/></g><g class="text"/></g><g class="trace scatter tracef8fab4" style="stroke-miterlimit: 2; opacity: 1;"><g class="fills"/><g class="errorbars"><g class="errorbar" style="opacity: 1;"><path class="xerror" d="M31.89,213.35v8m0,-4H26.71m0,-4v8" style="vector-effect: none; stroke-width: 2px; stroke: rgb(204, 102, 119); stroke-opacity: 1;"/></g><g class="errorbar" style="opacity: 1;"><path class="xerror" d="M29.36,129.35v8m0,-4H18.73m0,-4v8" style="vector-effect: none; stroke-width: 2px; stroke: rgb(204, 102, 119); stroke-opacity: 1;"/></g><g class="errorbar" style="opacity: 1;"><path class="xerror" d="M261.39,45.35v8m0,-4H213.77m0,-4v8" style="vector-effect: none; stroke-width: 2px; stroke: rgb(204, 102, 119); stroke-opacity: 1;"/></g></g><g class="lines"/><g class="points"><path class="point" transform="translate(29.3,217.35)" d="M6.5,0L0,6.5L-6.5,0L0,-6.5Z" style="opacity: 1; stroke-width: 0px; fill: rgb(204, 102, 119); fill-opacity: 1;"/><path class="point" transform="translate(24.04,133.35)" d="M6.5,0L0,6.5L-6.5,0L0,-6.5Z" style="opacity: 1; stroke-width: 0px; fill: rgb(204, 102, 119); fill-opacity: 1;"/><path class="point" transform="translate(237.58,49.35)" d="M6.5,0L0,6.5L-6.5,0L0,-6.5Z" style="opacity: 1; stroke-width: 0px; fill: rgb(204, 102, 119); fill-opacity: 1;"/></g><g class="text"/></g><g class="trace scatter trace4b1e62" style="stroke-miterlimit: 2; opacity: 1;"><g class="fills"/><g class="errorbars"><g class="errorbar" style="opacity: 1;"><path class="xerror" d="M104.83,198.65v8m0,-4H99.54m0,-4v8" style="vector-effect: none; stroke-width: 2px; stroke: rgb(221, 204, 119); stroke-opacity: 1;"/></g><g class="errorbar" style="opacity: 1;"><path class="xerror" d="M54.74,114.65v8m0,-4H42.71m0,-4v8" style="vector-effect: none; stroke-width: 2px; stroke: rgb(221, 204, 119); stroke-opacity: 1;"/></g><g class="errorbar" style="opacity: 1;"><path class="xerror" d="M277.4,30.65v8m0,-4H205.58m0,-4v8" style="vector-effect: none; stroke-width: 2px; stroke: rgb(221, 204, 119); stroke-opacity: 1;"/></g></g><g class="lines"/><g class="points"><path class="point" transform="translate(102.19,202.65)" d="M5,5H-5V-5H5Z" style="opacity: 1; stroke-width: 0px; fill: rgb(221, 204, 119); fill-opacity: 1;"/><path class="point" transform="translate(48.72,118.65)" d="M5,5H-5V-5H5Z" style="opacity: 1; stroke-width: 0px; fill: rgb(221, 204, 119); fill-opacity: 1;"/><path class="point" transform="translate(241.49,34.65)" d="M5,5H-5V-5H5Z" style="opacity: 1; stroke-width: 0px; fill: rgb(221, 204, 119); fill-opacity: 1;"/></g><g class="text"/></g><g class="trace scatter trace7db0fe" style="stroke-miterlimit: 2; opacity: 1;"><g class="fills"/><g class="errorbars"><g class="errorbar" style="opacity: 1;"><path class="xerror" d="M55.49,183.95v8m0,-4H49.67m0,-4v8" style="vector-effect: none; stroke-width: 2px; stroke: rgb(17, 119, 51); stroke-opacity: 1;"/></g><g class="errorbar" style="opacity: 1;"><path class="xerror" d="M56.51,99.95v8m0,-4H37.2m0,-4v8" style="vector-effect: none; stroke-width: 2px; stroke: rgb(17, 119, 51); stroke-opacity: 1;"/></g><g class="errorbar" style="opacity: 1;"><path class="xerror" d="M94.7,15.95v8m0,-4H26.94m0,-4v8" style="vector-effect: none; stroke-width: 2px; stroke: rgb(17, 119, 51); stroke-opacity: 1;"/></g></g><g class="lines"/><g class="points"><path class="point" transform="translate(52.58,187.95)" d="M0,2.83l2.83,2.83l2.83,-2.83l-2.83,-2.83l2.83,-2.83l-2.83,-2.83l-2.83,2.83l-2.83,-2.83l-2.83,2.83l2.83,2.83l-2.83,2.83l2.83,2.83Z" style="opacity: 1; stroke-width: 0px; fill: rgb(17, 119, 51); fill-opacity: 1;"/><path class="point" transform="translate(46.86,103.95)" d="M0,2.83l2.83,2.83l2.83,-2.83l-2.83,-2.83l2.83,-2.83l-2.83,-2.83l-2.83,2.83l-2.83,-2.83l-2.83,2.83l2.83,2.83l-2.83,2.83l2.83,2.83Z" style="opacity: 1; stroke-width: 0px; fill: rgb(17, 119, 51); fill-opacity: 1;"/><path class="point" transform="translate(60.82,19.95)" d="M0,2.83l2.83,2.83l2.83,-2.83l-2.83,-2.83l2.83,-2.83l-2.83,-2.83l-2.83,2.83l-2.83,-2.83l-2.83,2.83l2.83,2.83l-2.83,2.83l2.83,2.83Z" style="opacity: 1; stroke-width: 0px; fill: rgb(17, 119, 51); fill-opacity: 1;"/></g><g class="text"/></g></g></g><g class="overplot"/><path class="xlines-above crisp" d="M23,281.5H316" style="fill: none; stroke-width: 1px; stroke: rgb(36, 36, 36); stroke-opacity: 1;"/><path class="ylines-above crisp" d="M23.5,29V281" style="fill: none; stroke-width: 1px; stroke: rgb(36, 36, 36); stroke-opacity: 1;"/><g class="overlines-above"/><g class="xaxislayer-above"><path class="xtick ticks crisp" d="M0,282v2" transform="translate(33.75,0)" style="stroke: rgb(0, 0, 0); stroke-opacity: 1; stroke-width: 1px;"/><path class="xtick ticks crisp" d="M0,282v2" transform="translate(53.760000000000005,0)" style="stroke: rgb(0, 0, 0); stroke-opacity: 1; stroke-width: 1px;"/><path class="xtick ticks crisp" d="M0,282v2" transform="translate(63.77,0)" style="stroke: rgb(0, 0, 0); stroke-opacity: 1; stroke-width: 1px;"/><path class="xtick ticks crisp" d="M0,282v2" transform="translate(73.78,0)" style="stroke: rgb(0, 0, 0); stroke-opacity: 1; stroke-width: 1px;"/><path class="xtick ticks crisp" d="M0,282v2" transform="translate(83.78999999999999,0)" style="stroke: rgb(0, 0, 0); stroke-opacity: 1; stroke-width: 1px;"/><path class="xtick ticks crisp" d="M0,282v2" transform="translate(93.8,0)" style="stroke: rgb(0, 0, 0); stroke-opacity: 1; stroke-width: 1px;"/><path class="xtick ticks crisp" d="M0,282v2" transform="translate(103.81,0)" style="stroke: rgb(0, 0, 0); stroke-opacity: 1; stroke-width: 1px;"/><path class="xtick ticks crisp" d="M0,282v2" transform="translate(113.82,0)" style="stroke: rgb(0, 0, 0); stroke-opacity: 1; stroke-width: 1px;"/><path class="xtick ticks crisp" d="M0,282v2" transform="translate(123.83,0)" style="stroke: rgb(0, 0, 0); stroke-opacity: 1; stroke-width: 1px;"/><path class="xtick ticks crisp" d="M0,282v2" transform="translate(133.84,0)" style="stroke: rgb(0, 0, 0); stroke-opacity: 1; stroke-width: 1px;"/><path class="xtick ticks crisp" d="M0,282v2" transform="translate(153.86,0)" style="stroke: rgb(0, 0, 0); stroke-opacity: 1; stroke-width: 1px;"/><path class="xtick ticks crisp" d="M0,282v2" transform="translate(163.87,0)" style="stroke: rgb(0, 0, 0); stroke-opacity: 1; stroke-width: 1px;"/><path class="xtick ticks crisp" d="M0,282v2" transform="translate(173.88,0)" style="stroke: rgb(0, 0, 0); stroke-opacity: 1; stroke-width: 1px;"/><path class="xtick ticks crisp" d="M0,282v2" transform="translate(183.89,0)" style="stroke: rgb(0, 0, 0); stroke-opacity: 1; stroke-width: 1px;"/><path class="xtick ticks crisp" d="M0,282v2" transform="translate(193.9,0)" style="stroke: rgb(0, 0, 0); stroke-opacity: 1; stroke-width: 1px;"/><path class="xtick ticks crisp" d="M0,282v2" transform="translate(203.91,0)" style="stroke: rgb(0, 0, 0); stroke-opacity: 1; stroke-width: 1px;"/><path class="xtick ticks crisp" d="M0,282v2" transform="translate(213.92,0)" style="stroke: rgb(0, 0, 0); stroke-opacity: 1; stroke-width: 1px;"/><path class="xtick ticks crisp" d="M0,282v2" transform="translate(223.93,0)" style="stroke: rgb(0, 0, 0); stroke-opacity: 1; stroke-width: 1px;"/><path class="xtick ticks crisp" d="M0,282v2" transform="translate(233.94,0)" style="stroke: rgb(0, 0, 0); stroke-opacity: 1; stroke-width: 1px;"/><path class="xtick ticks crisp" d="M0,282v2" transform="translate(253.96,0)" style="stroke: rgb(0, 0, 0); stroke-opacity: 1; stroke-width: 1px;"/><path class="xtick ticks crisp" d="M0,282v2" transform="translate(263.97,0)" style="stroke: rgb(0, 0, 0); stroke-opacity: 1; stroke-width: 1px;"/><path class="xtick ticks crisp" d="M0,282v2" transform="translate(273.98,0)" style="stroke: rgb(0, 0, 0); stroke-opacity: 1; stroke-width: 1px;"/><path class="xtick ticks crisp" d="M0,282v2" transform="translate(283.99,0)" style="stroke: rgb(0, 0, 0); stroke-opacity: 1; stroke-width: 1px;"/><path class="xtick ticks crisp" d="M0,282v2" transform="translate(294,0)" style="stroke: rgb(0, 0, 0); stroke-opacity: 1; stroke-width: 1px;"/><path class="xtick ticks crisp" d="M0,282v2" transform="translate(304.01,0)" style="stroke: rgb(0, 0, 0); stroke-opacity: 1; stroke-width: 1px;"/><path class="xtick ticks crisp" d="M0,282v2" transform="translate(314.02,0)" style="stroke: rgb(0, 0, 0); stroke-opacity: 1; stroke-width: 1px;"/><path class="xtick ticks crisp" d="M0,282v5" transform="translate(43.75,0)" style="stroke: rgb(68, 68, 68); stroke-opacity: 1; stroke-width: 1px;"/><path class="xtick ticks crisp" d="M0,282v5" transform="translate(143.85,0)" style="stroke: rgb(68, 68, 68); stroke-opacity: 1; stroke-width: 1px;"/><path class="xtick ticks crisp" d="M0,282v5" transform="translate(243.95,0)" style="stroke: rgb(68, 68, 68); stroke-opacity: 1; stroke-width: 1px;"/><g class="xtick"><text text-anchor="middle" x="0" y="300.2" transform="translate(43.75,0)" style="font-family: Newsreader; font-size: 11px; fill: rgb(36, 36, 36); fill-opacity: 1; white-space: pre; opacity: 1;">0</text></g><g class="xtick"><text text-anchor="middle" x="0" y="300.2" style="font-family: Newsreader; font-size: 11px; fill: rgb(36, 36, 36); fill-opacity: 1; white-space: pre; opacity: 1;" transform="translate(143.85,0)">0.05</text></g><g class="xtick"><text text-anchor="middle" x="0" y="300.2" style="font-family: Newsreader; font-size: 11px; fill: rgb(36, 36, 36); fill-opacity: 1; white-space: pre; opacity: 1;" transform="translate(243.95,0)">0.1</text></g></g><g class="yaxislayer-above"><path class="ytick ticks crisp" d="M23,0h-10" transform="translate(0,71)" style="stroke: rgb(255, 255, 255); stroke-opacity: 1; stroke-width: 1px;"/><path class="ytick ticks crisp" d="M23,0h-10" transform="translate(0,155)" style="stroke: rgb(255, 255, 255); stroke-opacity: 1; stroke-width: 1px;"/><path class="ytick ticks crisp" d="M23,0h-10" transform="translate(0,239)" style="stroke: rgb(255, 255, 255); stroke-opacity: 1; stroke-width: 1px;"/><g class="ytick"><text text-anchor="middle" x="3.1000000000000014" y="3.8499999999999996" transform="translate(0,71) rotate(-90,3.1000000000000014,-1.6500000000000004)" style="font-family: 'Courier New'; font-size: 11px; fill: rgb(36, 36, 36); fill-opacity: 1; white-space: pre; opacity: 1;">StudentPerf</text></g><g class="ytick"><text text-anchor="middle" x="3.1000000000000014" y="3.8499999999999996" style="font-family: 'Courier New'; font-size: 11px; fill: rgb(36, 36, 36); fill-opacity: 1; white-space: pre; opacity: 1;" transform="translate(0,155) rotate(-90,3.1000000000000014,-1.6500000000000004)">COMPAS</text></g><g class="ytick"><text text-anchor="middle" x="3.1000000000000014" y="3.8499999999999996" style="font-family: 'Courier New'; font-size: 11px; fill: rgb(36, 36, 36); fill-opacity: 1; white-space: pre; opacity: 1;" transform="translate(0,239) rotate(-90,3.1000000000000014,-1.6500000000000004)">AdultIncome</text></g></g><g class="overaxes-above"/></g></g><g class="polarlayer"/><g class="smithlayer"/><g class="ternarylayer"/><g class="geolayer"/><g class="funnelarealayer"/><g class="pielayer"/><g class="iciclelayer"/><g class="treemaplayer"/><g class="sunburstlayer"/><g class="glimages"/><defs id="topdefs-da54da"><g class="clips"/><clipPath id="legendda54da"><rect width="292" height="29" x="0" y="0"/></clipPath></defs><g class="layer-above"><g class="imagelayer"/><g class="shapelayer"/></g><g class="infolayer"><g class="legend" pointer-events="all" transform="translate(24,0)"><rect class="bg" shape-rendering="crispEdges" width="292" height="29" x="0" y="0" style="stroke: rgb(68, 68, 68); stroke-opacity: 1; fill: rgb(255, 255, 255); fill-opacity: 1; stroke-width: 0px;"/><g class="scrollbox" transform="" clip-path="url(#legendda54da)"><g class="groups" transform=""><g class="traces" transform="translate(0,14.5)" style="opacity: 1;"><text class="legendtext" text-anchor="start" x="40" y="4.29" style="font-family: Newsreader; font-size: 11px; fill: rgb(36, 36, 36); fill-opacity: 1; white-space: pre;">perceptron</text><g class="layers" style="opacity: 1;"><g class="legendfill"/><g class="legendlines"/><g class="legendsymbols"><g class="legendpoints"><path class="scatterpts" transform="translate(20,0)" d="M5,0A5,5 0 1,1 0,-5A5,5 0 0,1 5,0Z" style="opacity: 1; stroke-width: 0px; fill: rgb(136, 204, 238); fill-opacity: 1;"/></g></g></g><rect class="legendtoggle" x="0" y="-9.5" width="91.03125" height="19" style="fill: rgb(0, 0, 0); fill-opacity: 0;"/></g></g><g class="groups" transform="translate(93.53125,0)"><g class="traces" transform="translate(0,14.5)" style="opacity: 1;"><text class="legendtext" text-anchor="start" x="40" y="4.29" style="font-family: Newsreader; font-size: 11px; fill: rgb(36, 36, 36); fill-opacity: 1; white-space: pre;">linear</text><g class="layers" style="opacity: 1;"><g class="legendfill"/><g class="legendlines"/><g class="legendsymbols"><g class="legendpoints"><path class="scatterpts" transform="translate(20,0)" d="M6.5,0L0,6.5L-6.5,0L0,-6.5Z" style="opacity: 1; stroke-width: 0px; fill: rgb(204, 102, 119); fill-opacity: 1;"/></g></g></g><rect class="legendtoggle" x="0" y="-9.5" width="67.890625" height="19" style="fill: rgb(0, 0, 0); fill-opacity: 0;"/></g></g><g class="groups" transform="translate(163.921875,0)"><g class="traces" transform="translate(0,14.5)" style="opacity: 1;"><text class="legendtext" text-anchor="start" x="40" y="4.29" style="font-family: Newsreader; font-size: 11px; fill: rgb(36, 36, 36); fill-opacity: 1; white-space: pre;">tree</text><g class="layers" style="opacity: 1;"><g class="legendfill"/><g class="legendlines"/><g class="legendsymbols"><g class="legendpoints"><path class="scatterpts" transform="translate(20,0)" d="M5,5H-5V-5H5Z" style="opacity: 1; stroke-width: 0px; fill: rgb(221, 204, 119); fill-opacity: 1;"/></g></g></g><rect class="legendtoggle" x="0" y="-9.5" width="59.109375" height="19" style="fill: rgb(0, 0, 0); fill-opacity: 0;"/></g></g><g class="groups" transform="translate(225.53125,0)"><g class="traces" transform="translate(0,14.5)" style="opacity: 1;"><text class="legendtext" text-anchor="start" x="40" y="4.29" style="font-family: Newsreader; font-size: 11px; fill: rgb(36, 36, 36); fill-opacity: 1; white-space: pre;">gbdt</text><g class="layers" style="opacity: 1;"><g class="legendfill"/><g class="legendlines"/><g class="legendsymbols"><g class="legendpoints"><path class="scatterpts" transform="translate(20,0)" d="M0,2.83l2.83,2.83l2.83,-2.83l-2.83,-2.83l2.83,-2.83l-2.83,-2.83l-2.83,2.83l-2.83,-2.83l-2.83,2.83l2.83,2.83l-2.83,2.83l2.83,2.83Z" style="opacity: 1; stroke-width: 0px; fill: rgb(17, 119, 51); fill-opacity: 1;"/></g></g></g><rect class="legendtoggle" x="0" y="-9.5" width="63" height="19" style="fill: rgb(0, 0, 0); fill-opacity: 0;"/></g></g></g><rect class="scrollbar" rx="20" ry="3" width="0" height="0" x="0" y="0" style="fill: rgb(128, 139, 164); fill-opacity: 1;"/></g><g class="g-gtitle"/><g class="g-xtitle" transform="translate(0,-3.3031250000000227)"><text class="xtitle" x="170" y="325.803125" text-anchor="middle" style="font-family: Newsreader; font-size: 13px; fill: rgb(36, 36, 36); opacity: 1; font-weight: normal; white-space: pre;">Cost of Exhaustion</text></g><g class="g-ytitle"/></g></svg>